<?xml version="1.0" encoding="UTF-8"?>
<svg id="Layer_1" data-name="Layer 1" xmlns="http://www.w3.org/2000/svg" xmlns:xlink="http://www.w3.org/1999/xlink" viewBox="0 0 449.02 96.47">
  <defs>
    <style>
      .cls-1 {
        letter-spacing: 0em;
      }

      .cls-2 {
        fill: url(#linear-gradient);
        stroke-width: 0px;
      }

      .cls-3 {
        letter-spacing: -.04em;
      }

      .cls-4 {
        letter-spacing: 0em;
      }

      .cls-5 {
        letter-spacing: -.01em;
      }

      .cls-6 {
        font-size: 72px;
      }

      .cls-6, .cls-7, .cls-8 {
        fill: #fff;
        font-family: Montserrat-Black, Montserrat;
        font-weight: 800;
      }

      .cls-7 {
        font-size: 50px;
      }

      .cls-8 {
        font-size: 26px;
      }
    </style>
    <linearGradient id="linear-gradient" x1="148.43" y1="60.6" x2="218.07" y2="60.6" gradientUnits="userSpaceOnUse">
      <stop offset="0" stop-color="#48c0ef"/>
      <stop offset=".55" stop-color="#0068af"/>
      <stop offset="1" stop-color="#8852a1"/>
    </linearGradient>
  </defs>
  <text class="cls-6" transform="translate(1.37 61.2)"><tspan x="0" y="0" xml:space="preserve">ARC  </tspan></text>
  <text class="cls-8" transform="translate(1.37 89.2)"><tspan class="cls-4" x="0" y="0">F</tspan><tspan x="16.61" y="0">OR</tspan><tspan class="cls-3" x="58.03" y="0">W</tspan><tspan x="88.35" y="0">ARD</tspan></text>
  <path class="cls-2" d="m160.96,91.23c-5.16-2.83-9.33-6.35-12.53-10.54l14.84-14.57c1.77,3.05,4.02,5.56,6.76,7.54,2.74,1.98,5.47,3.1,8.19,3.36,4.18.4,7.78-.77,10.78-3.5,3.01-2.74,4.74-6.42,5.18-11.06.29-3.05-.06-5.86-1.05-8.44-1-2.58-2.54-4.67-4.62-6.28-2.09-1.61-4.49-2.54-7.21-2.8-2.53-.24-5.3.21-8.32,1.36-3.02,1.15-5.78,2.85-8.29,5.09l-11.95-15.52c4.33-3.87,9.35-6.8,15.07-8.78,5.72-1.99,11.25-2.72,16.6-2.21,7.03.67,13.21,2.83,18.53,6.48s9.31,8.36,11.96,14.14,3.65,12.09,2.99,18.93c-.65,6.77-2.85,12.69-6.61,17.76-3.76,5.07-8.66,8.85-14.7,11.34-6.04,2.49-12.68,3.4-19.9,2.7-5.31-.51-10.55-2.18-15.71-5.01Z"/>
  <text class="cls-7" transform="translate(218.37 76.2)"><tspan x="0" y="0">ER</tspan><tspan class="cls-5" x="70.9" y="0">V</tspan><tspan class="cls-1" x="109.45" y="0">ICES</tspan></text>
</svg>