<?xml version="1.0" encoding="UTF-8"?>
<svg id="Calque_1" data-name="Calque 1" xmlns="http://www.w3.org/2000/svg" viewBox="0 0 355.62 176.84">
  <defs>
    <style>
      .cls-1, .cls-2, .cls-3 {
        stroke-width: 0px;
      }

      .cls-2, .cls-3 {
        fill: #1894ce;
      }

      .cls-3 {
        fill-rule: evenodd;
      }
    </style>
  </defs>
  <path class="cls-1" d="m152.6,126.08c-.37,5.04-2.23,9.01-5.58,11.9-3.36,2.9-7.78,4.34-13.27,4.34-6,0-10.73-2.02-14.17-6.06-3.44-4.04-5.16-9.59-5.16-16.65v-2.86c0-4.5.79-8.47,2.38-11.9,1.59-3.43,3.85-6.06,6.8-7.9,2.95-1.83,6.37-2.75,10.28-2.75,5.4,0,9.76,1.45,13.06,4.34,3.3,2.9,5.21,6.96,5.73,12.19h-9.65c-.24-3.02-1.08-5.22-2.53-6.58s-3.65-2.04-6.61-2.04c-3.22,0-5.62,1.15-7.22,3.46-1.6,2.31-2.42,5.88-2.46,10.73v3.54c0,5.06.77,8.76,2.3,11.1,1.53,2.34,3.95,3.51,7.25,3.51,2.98,0,5.21-.68,6.68-2.04,1.47-1.36,2.31-3.47,2.53-6.32h9.65Z"/>
  <path class="cls-1" d="m177.89,115.59c-1.27-.17-2.38-.26-3.35-.26-3.52,0-5.82,1.19-6.92,3.57v22.78h-9.3v-34.81h8.78l.26,4.15c1.87-3.2,4.45-4.79,7.75-4.79,1.03,0,1.99.14,2.9.42l-.13,8.94Z"/>
  <path class="cls-1" d="m197.77,142.33c-5.1,0-9.26-1.57-12.47-4.7-3.21-3.13-4.81-7.3-4.81-12.51v-.9c0-3.5.68-6.62,2.03-9.38,1.35-2.76,3.27-4.88,5.74-6.37,2.48-1.49,5.3-2.24,8.48-2.24,4.76,0,8.51,1.5,11.24,4.5s4.1,7.26,4.1,12.77v3.8h-22.16c.3,2.27,1.21,4.1,2.72,5.47,1.51,1.37,3.43,2.06,5.74,2.06,3.58,0,6.38-1.3,8.4-3.89l4.57,5.11c-1.39,1.97-3.28,3.51-5.66,4.62s-5.02,1.66-7.91,1.66Zm-1.06-28.6c-1.84,0-3.34.63-4.49,1.87-1.15,1.25-1.88,3.04-2.2,5.36h12.93v-.74c-.04-2.07-.6-3.67-1.67-4.8-1.07-1.13-2.59-1.7-4.57-1.7Z"/>
  <path class="cls-1" d="m237.53,141.68c-.43-.84-.74-1.88-.93-3.12-2.25,2.51-5.18,3.76-8.78,3.76-3.41,0-6.24-.99-8.48-2.96-2.24-1.97-3.36-4.46-3.36-7.46,0-3.69,1.37-6.52,4.1-8.49s6.69-2.97,11.85-2.99h4.28v-1.99c0-1.61-.41-2.9-1.24-3.86-.83-.97-2.13-1.45-3.91-1.45-1.57,0-2.79.38-3.68,1.13-.89.75-1.34,1.78-1.34,3.09h-9.3c0-2.02.62-3.88,1.87-5.6,1.24-1.72,3-3.06,5.28-4.04,2.27-.98,4.83-1.46,7.66-1.46,4.29,0,7.69,1.08,10.21,3.23,2.52,2.16,3.78,5.18,3.78,9.09v15.09c.02,3.3.48,5.8,1.38,7.5v.55h-9.39Zm-7.69-6.47c1.37,0,2.64-.31,3.8-.92s2.02-1.43,2.57-2.46v-5.98h-3.47c-4.65,0-7.13,1.61-7.43,4.83l-.03.55c0,1.16.41,2.11,1.22,2.86.81.75,1.93,1.13,3.35,1.13Z"/>
  <path class="cls-1" d="m263.81,98.32v8.56h5.95v6.82h-5.95v17.37c0,1.29.25,2.21.74,2.77s1.44.84,2.83.84c1.03,0,1.94-.08,2.73-.23v7.05c-1.82.56-3.7.84-5.63.84-6.52,0-9.84-3.29-9.97-9.88v-18.75h-5.08v-6.82h5.08v-8.56h9.3Z"/>
  <g>
    <rect class="cls-1" x="275.42" y="106.88" width="9.33" height="34.81"/>
    <path class="cls-1" d="m283.89,94.43c.94.9,1.41,2.05,1.41,3.45s-.47,2.57-1.43,3.47-2.22,1.35-3.78,1.35-2.82-.45-3.78-1.35-1.44-2.05-1.44-3.47.47-2.55,1.41-3.45,2.2-1.35,3.81-1.35,2.85.45,3.8,1.35Z"/>
  </g>
  <path class="cls-1" d="m305.44,130.33l6.47-23.45h9.72l-11.74,34.81h-8.88l-11.74-34.81h9.72l6.47,23.45Z"/>
  <path class="cls-1" d="m341.31,142.33c-5.1,0-9.26-1.57-12.47-4.7-3.21-3.13-4.81-7.3-4.81-12.51v-.9c0-3.5.68-6.62,2.03-9.38,1.35-2.76,3.27-4.88,5.74-6.37,2.48-1.49,5.3-2.24,8.48-2.24,4.76,0,8.51,1.5,11.24,4.5,2.73,3,4.1,7.26,4.1,12.77v3.8h-22.16c.3,2.27,1.21,4.1,2.72,5.47s3.43,2.06,5.74,2.06c3.58,0,6.38-1.3,8.4-3.89l4.57,5.11c-1.39,1.97-3.28,3.51-5.66,4.62s-5.02,1.66-7.91,1.66Zm-1.06-28.6c-1.84,0-3.34.63-4.49,1.87s-1.88,3.04-2.2,5.36h12.93v-.74c-.04-2.07-.6-3.67-1.67-4.8s-2.59-1.7-4.57-1.7Z"/>
  <g>
    <path class="cls-1" d="m123.31,148.43v7.93c0,1.24-.36,2.2-1.08,2.9s-1.69,1.04-2.92,1.04-2.2-.35-2.92-1.04-1.08-1.65-1.09-2.87v-7.96h.43v7.91c0,1.08.33,1.94.98,2.57s1.52.95,2.59.95,1.94-.32,2.59-.95.97-1.49.97-2.58v-7.9h.43Z"/>
    <path class="cls-1" d="m126.62,153.46c.28-.68.7-1.21,1.25-1.6s1.16-.59,1.83-.59c.93,0,1.63.26,2.08.79s.68,1.33.69,2.39v5.68h-.43v-5.69c0-.93-.2-1.62-.57-2.07-.38-.45-.97-.67-1.78-.67-.75,0-1.4.27-1.95.8-.55.53-.92,1.22-1.11,2.06v5.57h-.43v-8.7h.43v2.03Z"/>
    <path class="cls-1" d="m138.32,160.3c-.7,0-1.35-.19-1.93-.57s-1.05-.9-1.38-1.56c-.33-.66-.5-1.39-.5-2.19v-.36c0-.8.16-1.54.48-2.21s.76-1.19,1.33-1.57,1.18-.56,1.84-.56c.97,0,1.76.35,2.38,1.04s.92,1.6.92,2.73v.46h-6.52v.47c0,.71.15,1.36.45,1.96s.71,1.07,1.23,1.42c.52.34,1.09.51,1.7.51s1.08-.1,1.49-.29c.41-.19.77-.49,1.09-.9l.31.22c-.65.94-1.61,1.41-2.89,1.41Zm-.16-8.59c-.85,0-1.56.31-2.15.94s-.94,1.43-1.04,2.41h6.06v-.1c0-.59-.12-1.14-.37-1.64s-.59-.9-1.03-1.18-.93-.42-1.47-.42Z"/>
    <path class="cls-1" d="m152.79,158c0-1.06-.9-1.77-2.7-2.15-1.08-.23-1.84-.53-2.26-.89s-.64-.86-.64-1.49.27-1.16.81-1.58,1.24-.62,2.1-.62c.94,0,1.69.22,2.26.67s.85,1.05.85,1.81h-.44c0-.58-.25-1.07-.74-1.46s-1.14-.59-1.93-.59-1.36.17-1.81.5-.67.75-.67,1.25c0,.39.08.7.25.92s.44.42.81.6.92.35,1.64.52,1.29.36,1.7.59.72.49.91.8.28.68.28,1.13c0,.69-.28,1.24-.84,1.66s-1.3.63-2.21.63c-.98,0-1.76-.22-2.36-.66-.6-.44-.9-1.01-.9-1.71h.43c.04.61.31,1.09.81,1.43s1.17.51,2.01.51c.78,0,1.41-.18,1.89-.54s.73-.8.73-1.31Z"/>
    <path class="cls-1" d="m158.75,160.3c-.7,0-1.35-.19-1.93-.57s-1.05-.9-1.38-1.56-.5-1.39-.5-2.19v-.36c0-.8.16-1.54.48-2.21s.76-1.19,1.33-1.57,1.18-.56,1.84-.56c.97,0,1.76.35,2.38,1.04s.92,1.6.92,2.73v.46h-6.52v.47c0,.71.15,1.36.45,1.96s.71,1.07,1.23,1.42c.52.34,1.09.51,1.7.51s1.08-.1,1.49-.29c.41-.19.77-.49,1.09-.9l.31.22c-.65.94-1.61,1.41-2.89,1.41Zm-.16-8.59c-.85,0-1.56.31-2.15.94s-.94,1.43-1.04,2.41h6.06v-.1c0-.59-.12-1.14-.37-1.64s-.59-.9-1.03-1.18-.93-.42-1.47-.42Z"/>
    <path class="cls-1" d="m169.75,160.14v-1.41c-.26.48-.63.86-1.13,1.15-.49.28-1.12.42-1.87.42-.95,0-1.66-.28-2.13-.83s-.72-1.36-.73-2.42v-5.6h.43v5.62c.01.92.22,1.62.63,2.09s1,.71,1.78.71c.83,0,1.51-.2,2.03-.59s.85-.96.99-1.72v-6.12h.44v8.7h-.44Z"/>
    <path class="cls-1" d="m173.47,160.14h-.43v-12.35h.43v12.35Z"/>
    <path class="cls-1" d="m179.45,160.3c-.7,0-1.35-.19-1.93-.57s-1.05-.9-1.38-1.56-.5-1.39-.5-2.19v-.36c0-.8.16-1.54.48-2.21s.76-1.19,1.33-1.57,1.18-.56,1.84-.56c.97,0,1.76.35,2.38,1.04s.92,1.6.92,2.73v.46h-6.52v.47c0,.71.15,1.36.45,1.96s.71,1.07,1.23,1.42c.52.34,1.09.51,1.7.51s1.08-.1,1.49-.29c.41-.19.77-.49,1.09-.9l.31.22c-.65.94-1.61,1.41-2.89,1.41Zm-.16-8.59c-.85,0-1.56.31-2.15.94s-.94,1.43-1.04,2.41h6.06v-.1c0-.59-.12-1.14-.37-1.64s-.59-.9-1.03-1.18-.93-.42-1.47-.42Z"/>
    <path class="cls-1" d="m189.09,160.14h-.43v-12.35h.43v12.35Z"/>
    <path class="cls-1" d="m191.83,148.72c0-.12.04-.23.13-.32s.19-.13.31-.13.23.04.32.13.13.19.13.32-.04.23-.13.31-.19.13-.32.13-.23-.04-.31-.13-.13-.19-.13-.31Zm.66,11.41h-.43v-8.7h.43v8.7Z"/>
    <path class="cls-1" d="m201.56,160.14h-.43v-5.84c0-.87-.2-1.52-.57-1.95-.38-.43-.98-.64-1.8-.64-.95,0-1.73.42-2.34,1.26-.36.5-.6,1.06-.72,1.67v5.49h-.44v-8.7h.44v2.06c.29-.71.72-1.25,1.26-1.64s1.15-.58,1.82-.58c.73,0,1.33.16,1.79.48s.77.85.91,1.58c.26-.63.68-1.13,1.25-1.5s1.23-.56,1.95-.56c.94,0,1.64.27,2.09.8s.69,1.33.7,2.39v5.68h-.43v-5.64c0-.95-.19-1.66-.57-2.12-.38-.46-.98-.68-1.8-.67-1.06.02-1.89.44-2.51,1.26-.35.48-.55.94-.58,1.38v5.78Z"/>
    <path class="cls-1" d="m209.98,148.72c0-.12.04-.23.13-.32s.19-.13.31-.13.23.04.32.13.13.19.13.32-.04.23-.13.31-.19.13-.32.13-.23-.04-.31-.13-.13-.19-.13-.31Zm.66,11.41h-.43v-8.7h.43v8.7Z"/>
    <path class="cls-1" d="m214.46,149.09v2.35h1.98v.43h-1.98v6.18c0,.62.1,1.07.3,1.37s.54.44,1.01.44c.24,0,.52-.02.86-.07l.07.41c-.18.06-.48.1-.91.1-.63,0-1.09-.18-1.36-.53-.27-.35-.41-.91-.42-1.66v-6.24h-1.61v-.43h1.61v-2.35h.44Z"/>
    <path class="cls-1" d="m221.83,160.3c-.7,0-1.35-.19-1.93-.57s-1.05-.9-1.38-1.56-.5-1.39-.5-2.19v-.36c0-.8.16-1.54.48-2.21s.76-1.19,1.33-1.57,1.18-.56,1.84-.56c.97,0,1.76.35,2.38,1.04s.92,1.6.92,2.73v.46h-6.52v.47c0,.71.15,1.36.45,1.96.3.6.71,1.07,1.23,1.42.52.34,1.09.51,1.7.51s1.08-.1,1.49-.29c.41-.19.77-.49,1.09-.9l.31.22c-.65.94-1.61,1.41-2.89,1.41Zm-.16-8.59c-.85,0-1.56.31-2.15.94s-.94,1.43-1.04,2.41h6.06v-.1c0-.59-.12-1.14-.37-1.64s-.59-.9-1.03-1.18-.93-.42-1.47-.42Z"/>
    <path class="cls-1" d="m226.65,162.19l-.3-.26c.43-.56.67-1.13.71-1.73v-1.34h.44v1.17c-.02.85-.31,1.57-.85,2.15Z"/>
    <path class="cls-1" d="m236.57,159.44l3.13-8.01h.47l-3.38,8.7h-.43l-3.38-8.7h.47l3.13,8.01Z"/>
    <path class="cls-1" d="m241.1,155.62c0-.83.16-1.58.48-2.24s.77-1.18,1.35-1.55,1.24-.55,1.97-.55,1.38.18,1.96.54,1.03.87,1.35,1.53.49,1.4.49,2.23v.39c0,.84-.16,1.58-.47,2.24s-.77,1.17-1.35,1.54-1.24.55-1.97.55-1.39-.18-1.97-.55-1.03-.87-1.35-1.53c-.32-.66-.49-1.39-.49-2.21v-.39Zm.43.34c0,.72.14,1.39.43,1.99s.69,1.07,1.2,1.41,1.1.51,1.76.51c.99,0,1.8-.37,2.42-1.12s.94-1.7.94-2.88v-.25c0-.71-.14-1.37-.43-1.98s-.69-1.08-1.2-1.42-1.09-.51-1.74-.51c-.99,0-1.8.38-2.43,1.13s-.94,1.71-.94,2.85v.26Z"/>
    <path class="cls-1" d="m251.79,149.09v2.35h1.98v.43h-1.98v6.18c0,.62.1,1.07.3,1.37s.54.44,1.01.44c.24,0,.52-.02.86-.07l.07.41c-.18.06-.48.1-.91.1-.63,0-1.09-.18-1.36-.53-.27-.35-.41-.91-.42-1.66v-6.24h-1.61v-.43h1.61v-2.35h.44Z"/>
    <path class="cls-1" d="m259.86,151.76l-.56-.05c-.74,0-1.36.24-1.86.72-.5.48-.83,1.15-.98,2.01v5.69h-.43v-8.7h.43v1.81c.24-.61.59-1.09,1.06-1.44s1.06-.53,1.78-.53c.25,0,.46.03.61.09l-.05.39Z"/>
    <path class="cls-1" d="m264.51,160.3c-.7,0-1.35-.19-1.93-.57s-1.05-.9-1.38-1.56-.5-1.39-.5-2.19v-.36c0-.8.16-1.54.48-2.21s.76-1.19,1.33-1.57,1.18-.56,1.84-.56c.97,0,1.76.35,2.38,1.04s.92,1.6.92,2.73v.46h-6.52v.47c0,.71.15,1.36.45,1.96s.71,1.07,1.23,1.42c.52.34,1.09.51,1.7.51s1.08-.1,1.49-.29c.41-.19.77-.49,1.09-.9l.31.22c-.65.94-1.61,1.41-2.89,1.41Zm-.16-8.59c-.85,0-1.56.31-2.15.94s-.94,1.43-1.04,2.41h6.06v-.1c0-.59-.12-1.14-.37-1.64s-.59-.9-1.03-1.18-.93-.42-1.47-.42Z"/>
    <path class="cls-1" d="m273.49,148.72c0-.12.04-.23.13-.32s.19-.13.31-.13.23.04.32.13.13.19.13.32-.04.23-.13.31-.19.13-.32.13-.23-.04-.31-.13-.13-.19-.13-.31Zm.66,11.41h-.43v-8.7h.43v8.7Z"/>
    <path class="cls-1" d="m283.23,160.14h-.43v-5.84c0-.87-.2-1.52-.57-1.95-.38-.43-.98-.64-1.8-.64-.95,0-1.73.42-2.34,1.26-.36.5-.6,1.06-.72,1.67v5.49h-.44v-8.7h.44v2.06c.29-.71.72-1.25,1.26-1.64s1.15-.58,1.82-.58c.73,0,1.33.16,1.79.48s.77.85.91,1.58c.26-.63.68-1.13,1.25-1.5s1.23-.56,1.95-.56c.94,0,1.64.27,2.09.8s.69,1.33.7,2.39v5.68h-.43v-5.64c0-.95-.19-1.66-.57-2.12-.38-.46-.98-.68-1.8-.67-1.06.02-1.89.44-2.51,1.26-.35.48-.55.94-.58,1.38v5.78Z"/>
    <path class="cls-1" d="m297.38,160.14c-.11-.37-.16-.9-.16-1.59-.34.56-.81.99-1.41,1.29s-1.27.46-2.02.46c-.8,0-1.45-.22-1.94-.66s-.74-1.01-.74-1.71c0-.8.36-1.44,1.08-1.92s1.68-.72,2.87-.74h2.15v-1.27c0-.73-.23-1.29-.69-1.7s-1.11-.6-1.97-.6c-.79,0-1.46.2-1.99.61s-.8.91-.8,1.51l-.43-.02c0-.71.31-1.31.93-1.8s1.38-.74,2.28-.74,1.68.23,2.23.7.84,1.13.85,1.98v4.16c0,.95.08,1.6.23,1.95v.07h-.5Zm-3.59-.27c.81,0,1.52-.18,2.1-.55s1.03-.88,1.32-1.54v-2.07h-2.01c-1.24,0-2.19.25-2.85.74-.54.4-.8.9-.8,1.5,0,.53.21.98.64,1.35s.96.55,1.61.55Z"/>
    <path class="cls-1" d="m300.04,155.7c0-1.39.29-2.47.88-3.25s1.39-1.17,2.4-1.17c.65,0,1.22.15,1.73.45s.91.73,1.21,1.31v-1.59h.44v8.55c0,1.15-.29,2.04-.88,2.69s-1.39.97-2.4.97c-.58,0-1.12-.13-1.6-.38-.49-.25-.9-.61-1.24-1.09l.31-.29c.34.43.71.75,1.11.98.4.23.87.34,1.41.34.89,0,1.59-.27,2.09-.81s.76-1.31.77-2.3v-1.33c-.3.49-.71.87-1.22,1.14s-1.09.4-1.74.4c-1.01,0-1.8-.4-2.39-1.2s-.88-1.89-.88-3.29v-.11Zm.44.17c0,1.24.25,2.22.74,2.93s1.18,1.07,2.07,1.07c.73,0,1.36-.17,1.87-.51s.88-.82,1.09-1.43v-3.95c-.47-1.51-1.46-2.26-2.95-2.26-.89,0-1.59.35-2.09,1.05s-.74,1.74-.74,3.1Z"/>
    <path class="cls-1" d="m309.36,148.72c0-.12.04-.23.13-.32s.19-.13.31-.13.23.04.32.13.13.19.13.32-.04.23-.13.31-.19.13-.32.13-.23-.04-.31-.13-.13-.19-.13-.31Zm.66,11.41h-.43v-8.7h.43v8.7Z"/>
    <path class="cls-1" d="m313.31,153.46c.28-.68.7-1.21,1.25-1.6s1.16-.59,1.83-.59c.93,0,1.63.26,2.08.79s.68,1.33.69,2.39v5.68h-.43v-5.69c0-.93-.2-1.62-.57-2.07-.38-.45-.97-.67-1.78-.67-.75,0-1.4.27-1.95.8-.55.53-.92,1.22-1.11,2.06v5.57h-.43v-8.7h.43v2.03Z"/>
    <path class="cls-1" d="m327.51,160.14c-.11-.37-.16-.9-.16-1.59-.34.56-.81.99-1.41,1.29s-1.27.46-2.02.46c-.8,0-1.45-.22-1.94-.66s-.74-1.01-.74-1.71c0-.8.36-1.44,1.08-1.92s1.68-.72,2.87-.74h2.15v-1.27c0-.73-.23-1.29-.69-1.7s-1.11-.6-1.97-.6c-.79,0-1.46.2-1.99.61s-.8.91-.8,1.51l-.43-.02c0-.71.31-1.31.93-1.8s1.38-.74,2.28-.74,1.68.23,2.23.7.84,1.13.85,1.98v4.16c0,.95.08,1.6.23,1.95v.07h-.5Zm-3.59-.27c.81,0,1.52-.18,2.1-.55s1.03-.88,1.32-1.54v-2.07h-2.01c-1.24,0-2.19.25-2.85.74-.54.4-.8.9-.8,1.5,0,.53.21.98.64,1.35s.96.55,1.61.55Z"/>
    <path class="cls-1" d="m331.55,149.09v2.35h1.98v.43h-1.98v6.18c0,.62.1,1.07.3,1.37s.54.44,1.01.44c.24,0,.52-.02.86-.07l.07.41c-.18.06-.48.1-.91.1-.63,0-1.09-.18-1.36-.53-.27-.35-.41-.91-.42-1.66v-6.24h-1.61v-.43h1.61v-2.35h.44Z"/>
    <path class="cls-1" d="m335.66,148.72c0-.12.04-.23.13-.32s.19-.13.31-.13.23.04.32.13.13.19.13.32-.04.23-.13.31-.19.13-.32.13-.23-.04-.31-.13-.13-.19-.13-.31Zm.66,11.41h-.43v-8.7h.43v8.7Z"/>
    <path class="cls-1" d="m338.52,155.62c0-.83.16-1.58.48-2.24s.77-1.18,1.35-1.55,1.24-.55,1.97-.55,1.38.18,1.96.54,1.03.87,1.35,1.53.49,1.4.49,2.23v.39c0,.84-.16,1.58-.47,2.24s-.77,1.17-1.35,1.54-1.24.55-1.97.55-1.39-.18-1.97-.55-1.03-.87-1.35-1.53-.49-1.39-.49-2.21v-.39Zm.43.34c0,.72.14,1.39.43,1.99s.69,1.07,1.2,1.41,1.1.51,1.76.51c.99,0,1.8-.37,2.42-1.12s.94-1.7.94-2.88v-.25c0-.71-.14-1.37-.43-1.98s-.69-1.08-1.2-1.42-1.09-.51-1.74-.51c-.99,0-1.8.38-2.43,1.13s-.94,1.71-.94,2.85v.26Z"/>
    <path class="cls-1" d="m348.67,153.46c.28-.68.7-1.21,1.25-1.6.55-.39,1.16-.59,1.83-.59.93,0,1.63.26,2.08.79s.68,1.33.69,2.39v5.68h-.43v-5.69c0-.93-.2-1.62-.57-2.07-.38-.45-.97-.67-1.78-.67-.75,0-1.4.27-1.95.8-.55.53-.92,1.22-1.11,2.06v5.57h-.43v-8.7h.43v2.03Z"/>
  </g>
  <g>
    <path class="cls-3" d="m98.07,136.24c-2.37-2.55-4.71-4.76-7-6.56-11.98,27.85-26.32,52.75-37.51,46.05-11.25-6.75.42-35.92,6.38-44.1,6.89-9.43,13.81-11.9,20.41-10.06.54-1.31,1.04-2.54,1.48-3.64,2.59-6.41,5.17-13.06,7.71-19.85-10.63,12.83-22.65,20.51-34.68,13.49-8.49-4.95-12.42-14-15.57-23.31-.25,3.11-.52,6.08-.86,8.55-2.83,20.77-9.88,49.37-33.36,55.32l-5.07.88,4.9-1.41c26.62-9.86,26.29-48.52,25.75-71.88-.12-5.3-1.61-14.28,3.71-17.09,11.53-6.12,16.12,29.04,26.19,37.18,11.99,9.69,35.25-34.92,38.99-42.23,3.94-7.75,7.84-17.47,11.76-24.63,3.13-5.69,12.68-4.67,12.25,4.19-.09,1.76-8.67,27.48-9.43,29.73-2.29,6.87-11.37,35.48-22.6,61.78,2.26,2.2,4.45,4.78,6.55,7.59h0Zm-18.72-12.23c-7.69-.97-14.3,4.57-19.06,18.74-1.32,3.93-4.4,18.04-2.66,23.66,1.14-1.33,3.15-3.59,3.15-3.59,5.5-8.02,13.44-26.37,18.57-38.81h0Zm-21.06,43.8c.08.1.14.19.22.27-.07-.1-.14-.19-.22-.27h0Z"/>
    <path class="cls-3" d="m125.71,23.64c6.68,0,12.14-5.31,12.14-11.82s-5.46-11.82-12.14-11.82-12.15,5.31-12.15,11.82,5.46,11.82,12.15,11.82h0Z"/>
  </g>
  <circle class="cls-2" cx="280.07" cy="96.36" r="6.58"/>
</svg>